<svg width="1219px" height="310px"
 viewBox="0.00 0.00 1218.70 310.40" xmlns="http://www.w3.org/2000/svg" xmlns:xlink="http://www.w3.org/1999/xlink">
<g id="graph0" class="graph" transform="scale(1.0 1.0) rotate(0) translate(4 306.4)">
<title>Order State Machine</title>
<polygon fill="white" stroke="transparent" points="-4,4 -4,-306.4 1214.7,-306.4 1214.7,4 -4,4"/>
<!-- 19cc7ce4&#45;1023&#45;4871&#45;bf26&#45;8fe50b847514 -->
<g id="node1" class="node">
<title>19cc7ce4&#45;1023&#45;4871&#45;bf26&#45;8fe50b847514</title>
<polygon fill="none" stroke="black" points="481.65,-124.8 231.58,-124.8 231.58,-88.8 481.65,-88.8 481.65,-124.8"/>
<text text-anchor="middle" x="356.61" y="-102.6" font-family="Times,serif" font-size="14.00">19cc7ce4&#45;1023&#45;4871&#45;bf26&#45;8fe50b847514</text>
</g>
<!-- 0b16b25d&#45;39ea&#45;4e01&#45;9dc9&#45;12ed5b4a49bc -->
<g id="node4" class="node">
<title>0b16b25d&#45;39ea&#45;4e01&#45;9dc9&#45;12ed5b4a49bc</title>
<ellipse fill="none" stroke="black" cx="174.61" cy="-18" rx="174.73" ry="18"/>
<text text-anchor="middle" x="174.61" y="-13.8" font-family="Times,serif" font-size="14.00">0b16b25d&#45;39ea&#45;4e01&#45;9dc9&#45;12ed5b4a49bc</text>
</g>
<!-- 19cc7ce4&#45;1023&#45;4871&#45;bf26&#45;8fe50b847514&#45;&gt;0b16b25d&#45;39ea&#45;4e01&#45;9dc9&#45;12ed5b4a49bc -->
<g id="edge1" class="edge">
<title>19cc7ce4&#45;1023&#45;4871&#45;bf26&#45;8fe50b847514&#45;&gt;0b16b25d&#45;39ea&#45;4e01&#45;9dc9&#45;12ed5b4a49bc</title>
<path fill="none" stroke="black" d="M320.66,-88.65C291.46,-74.73 250.15,-55.03 218.92,-40.13"/>
<polygon fill="black" stroke="black" points="220.1,-36.82 209.57,-35.67 217.09,-43.13 220.1,-36.82"/>
<text text-anchor="middle" x="399.64" y="-58.2" font-family="Times,serif" font-size="14.00">f1529161&#45;505d&#45;488f&#45;92c3&#45;4f6dc7371709</text>
</g>
<!-- f1711d43&#45;380d&#45;4f91&#45;ab12&#45;58c476ec24dc -->
<g id="node5" class="node">
<title>f1711d43&#45;380d&#45;4f91&#45;ab12&#45;58c476ec24dc</title>
<ellipse fill="none" stroke="black" cx="539.61" cy="-18" rx="172.44" ry="18"/>
<text text-anchor="middle" x="539.61" y="-13.8" font-family="Times,serif" font-size="14.00">f1711d43&#45;380d&#45;4f91&#45;ab12&#45;58c476ec24dc</text>
</g>
<!-- 19cc7ce4&#45;1023&#45;4871&#45;bf26&#45;8fe50b847514&#45;&gt;f1711d43&#45;380d&#45;4f91&#45;ab12&#45;58c476ec24dc -->
<g id="edge2" class="edge">
<title>19cc7ce4&#45;1023&#45;4871&#45;bf26&#45;8fe50b847514&#45;&gt;f1711d43&#45;380d&#45;4f91&#45;ab12&#45;58c476ec24dc</title>
<path fill="none" stroke="black" d="M469.83,-88.79C490.95,-83.87 509.08,-77.87 517.61,-70.8 525.24,-64.48 530.28,-55.05 533.58,-45.96"/>
<polygon fill="black" stroke="black" points="536.93,-46.98 536.52,-36.39 530.24,-44.92 536.93,-46.98"/>
<text text-anchor="middle" x="645.85" y="-58.2" font-family="Times,serif" font-size="14.00">57f65472&#45;ade0&#45;44dd&#45;9caa&#45;3b1f954c7e67</text>
</g>
<!-- start -->
<g id="node2" class="node">
<title>start</title>
<polygon fill="none" stroke="black" points="698.61,-302.4 644.61,-302.4 644.61,-266.4 698.61,-266.4 698.61,-302.4"/>
<text text-anchor="middle" x="671.61" y="-280.2" font-family="Times,serif" font-size="14.00">start</text>
</g>
<!-- a8dea4ed&#45;f0ea&#45;4ec7&#45;b9f2&#45;749b72a9b427 -->
<g id="node3" class="node">
<title>a8dea4ed&#45;f0ea&#45;4ec7&#45;b9f2&#45;749b72a9b427</title>
<polygon fill="none" stroke="black" points="795.01,-213.6 548.22,-213.6 548.22,-177.6 795.01,-177.6 795.01,-213.6"/>
<text text-anchor="middle" x="671.61" y="-191.4" font-family="Times,serif" font-size="14.00">a8dea4ed&#45;f0ea&#45;4ec7&#45;b9f2&#45;749b72a9b427</text>
</g>
<!-- start&#45;&gt;a8dea4ed&#45;f0ea&#45;4ec7&#45;b9f2&#45;749b72a9b427 -->
<g id="edge3" class="edge">
<title>start&#45;&gt;a8dea4ed&#45;f0ea&#45;4ec7&#45;b9f2&#45;749b72a9b427</title>
<path fill="none" stroke="black" d="M671.61,-266.25C671.61,-254.12 671.61,-237.62 671.61,-223.72"/>
<polygon fill="black" stroke="black" points="675.11,-223.71 671.61,-213.71 668.11,-223.71 675.11,-223.71"/>
<text text-anchor="middle" x="701.16" y="-235.8" font-family="Times,serif" font-size="14.00">startdialog</text>
</g>
<!-- a8dea4ed&#45;f0ea&#45;4ec7&#45;b9f2&#45;749b72a9b427&#45;&gt;19cc7ce4&#45;1023&#45;4871&#45;bf26&#45;8fe50b847514 -->
<g id="edge6" class="edge">
<title>a8dea4ed&#45;f0ea&#45;4ec7&#45;b9f2&#45;749b72a9b427&#45;&gt;19cc7ce4&#45;1023&#45;4871&#45;bf26&#45;8fe50b847514</title>
<path fill="none" stroke="black" d="M548.14,-187.03C510.46,-181.93 469.51,-173.51 433.58,-159.6 416.04,-152.81 398.49,-141.44 384.58,-131.08"/>
<polygon fill="black" stroke="black" points="386.49,-128.13 376.43,-124.81 382.22,-133.68 386.49,-128.13"/>
<text text-anchor="middle" x="550.63" y="-147" font-family="Times,serif" font-size="14.00">a92141e8&#45;440d&#45;4b80&#45;ba13&#45;b752fdc0e0f6</text>
</g>
<!-- a81092c6&#45;7586&#45;4cee&#45;83ed&#45;995abef9b595 -->
<g id="node6" class="node">
<title>a81092c6&#45;7586&#45;4cee&#45;83ed&#45;995abef9b595</title>
<ellipse fill="none" stroke="black" cx="671.61" cy="-106.8" rx="172.42" ry="18"/>
<text text-anchor="middle" x="671.61" y="-102.6" font-family="Times,serif" font-size="14.00">a81092c6&#45;7586&#45;4cee&#45;83ed&#45;995abef9b595</text>
</g>
<!-- a8dea4ed&#45;f0ea&#45;4ec7&#45;b9f2&#45;749b72a9b427&#45;&gt;a81092c6&#45;7586&#45;4cee&#45;83ed&#45;995abef9b595 -->
<g id="edge4" class="edge">
<title>a8dea4ed&#45;f0ea&#45;4ec7&#45;b9f2&#45;749b72a9b427&#45;&gt;a81092c6&#45;7586&#45;4cee&#45;83ed&#45;995abef9b595</title>
<path fill="none" stroke="black" d="M671.61,-177.45C671.61,-165.32 671.61,-148.82 671.61,-134.92"/>
<polygon fill="black" stroke="black" points="675.11,-134.91 671.61,-124.91 668.11,-134.91 675.11,-134.91"/>
<text text-anchor="middle" x="788.25" y="-147" font-family="Times,serif" font-size="14.00">41c7f9df&#45;a18d&#45;4576&#45;a861&#45;553b584fb115</text>
</g>
<!-- 6782471a&#45;0fea&#45;49e4&#45;bd36&#45;d122c28d8105 -->
<g id="node7" class="node">
<title>6782471a&#45;0fea&#45;49e4&#45;bd36&#45;d122c28d8105</title>
<ellipse fill="none" stroke="black" cx="1036.61" cy="-106.8" rx="174.17" ry="18"/>
<text text-anchor="middle" x="1036.61" y="-102.6" font-family="Times,serif" font-size="14.00">6782471a&#45;0fea&#45;49e4&#45;bd36&#45;d122c28d8105</text>
</g>
<!-- a8dea4ed&#45;f0ea&#45;4ec7&#45;b9f2&#45;749b72a9b427&#45;&gt;6782471a&#45;0fea&#45;49e4&#45;bd36&#45;d122c28d8105 -->
<g id="edge5" class="edge">
<title>a8dea4ed&#45;f0ea&#45;4ec7&#45;b9f2&#45;749b72a9b427&#45;&gt;6782471a&#45;0fea&#45;49e4&#45;bd36&#45;d122c28d8105</title>
<path fill="none" stroke="black" d="M795.16,-182.02C832.03,-176.75 872.29,-169.48 908.61,-159.6 937.31,-151.8 968.24,-139.39 992.51,-128.68"/>
<polygon fill="black" stroke="black" points="994.11,-131.8 1001.81,-124.52 991.25,-125.41 994.11,-131.8"/>
<text text-anchor="middle" x="1071.07" y="-147" font-family="Times,serif" font-size="14.00">eff2b400&#45;fc55&#45;417c&#45;83c1&#45;0c73802de397</text>
</g>
</g>
</svg>
